<?xml version="1.0" standalone="no"?>
<!DOCTYPE svg PUBLIC "-//W3C//DTD SVG 20010904//EN"
 "http://www.w3.org/TR/2001/REC-SVG-20010904/DTD/svg10.dtd">
<svg version="1.0" xmlns="http://www.w3.org/2000/svg"
 width="257.000000pt" height="257.000000pt" viewBox="0 0 257.000000 257.000000"
 preserveAspectRatio="xMidYMid meet">
<metadata>
Created by potrace 1.14, written by Peter Selinger 2001-2017
</metadata>
<g transform="translate(0.000000,257.000000) scale(0.100000,-0.100000)"
fill="#000000" stroke="none">
<path d="M1940 2186 c-129 -51 -437 -173 -685 -271 -681 -270 -878 -349 -896
-360 -18 -11 -359 -685 -359 -710 0 -30 61 -49 280 -89 14 -2 138 -27 275 -55
138 -28 259 -53 270 -55 11 -2 135 -27 275 -56 140 -29 264 -54 275 -56 11 -2
65 -13 120 -24 55 -11 109 -22 120 -24 11 -2 146 -30 300 -61 154 -31 289 -59
300 -61 11 -2 43 -8 71 -14 28 -6 63 -13 79 -16 15 -3 56 -11 91 -18 54 -11
66 -11 84 1 27 19 26 35 -15 261 -15 82 -25 143 -30 182 -4 25 -10 63 -15 85
-5 22 -11 58 -14 80 -4 23 -9 52 -11 65 -3 14 -8 41 -11 60 -5 35 -71 421 -80
470 -4 22 -17 103 -30 185 -2 17 -9 53 -14 80 -5 28 -11 61 -14 75 -2 14 -7
41 -11 60 -3 19 -8 46 -10 60 -3 23 -13 82 -20 120 -2 8 -6 40 -10 70 -10 73
-29 110 -58 110 -12 0 -128 -42 -257 -94z m165 -48 c-2 -7 -32 -101 -66 -208
-34 -107 -83 -262 -109 -345 -27 -82 -61 -189 -76 -237 -27 -84 -29 -87 -63
-94 -20 -4 -40 -8 -46 -9 -15 -4 -216 -45 -240 -49 -69 -13 -236 -49 -268 -57
-38 -10 -45 -7 -325 147 -158 87 -315 174 -350 194 l-62 36 387 154 c214 84
573 226 798 316 226 90 413 163 417 164 4 0 6 -6 3 -12z m90 -243 c4 -27 8
-52 10 -55 2 -3 6 -26 10 -50 9 -66 14 -96 30 -185 8 -44 17 -98 20 -120 4
-22 8 -47 10 -55 5 -16 7 -28 30 -170 8 -52 17 -106 19 -120 7 -40 25 -142 30
-175 3 -16 19 -110 36 -208 16 -98 30 -182 30 -189 0 -6 -55 65 -122 157 -68
92 -179 242 -247 334 l-123 166 11 45 c7 25 44 144 82 265 39 121 89 278 112
349 45 142 45 142 62 11z m-1448 -624 c169 -94 305 -171 301 -171 -7 0 -815
-166 -870 -179 l-37 -9 135 270 c96 191 139 268 149 265 7 -3 152 -82 322
-176z m1244 -297 c79 -108 190 -259 247 -336 l103 -140 -68 38 c-37 20 -151
83 -253 139 -102 56 -207 115 -235 130 -27 15 -72 40 -100 55 -27 16 -82 46
-120 67 -197 107 -235 128 -235 134 0 3 73 21 163 39 89 18 198 41 242 50 44
10 87 19 96 19 9 1 74 -78 160 -195z m-697 -5 c61 -34 131 -73 156 -87 247
-135 565 -311 605 -334 28 -15 73 -40 102 -55 29 -15 51 -29 48 -31 -2 -2 -26
1 -52 7 -26 6 -59 14 -72 16 -14 3 -93 18 -176 35 -83 17 -162 32 -176 35 -13
3 -78 16 -144 30 -66 13 -133 27 -150 30 -16 3 -282 57 -590 119 -365 74 -552
116 -537 120 12 4 34 9 49 12 28 4 60 11 523 108 140 30 266 55 279 55 13 1
74 -27 135 -60z"/>
</g>
</svg>
