<?xml version="1.0" encoding="utf-8"?><svg viewBox="0 0 127 127" xmlns="http://www.w3.org/2000/svg" xmlns:xlink="http://www.w3.org/1999/xlink"><style>:root>svg{display:none}:root>svg:target{display:block}</style><svg viewBox="0 0 22 9" id="arrow-btn" xmlns="http://www.w3.org/2000/svg"><defs><style>.acls-1{fill:#fff;fill-rule:evenodd}</style></defs><path class="acls-1" d="M.3 5.472h16.948l-.1 2.857a.292.292 0 000 .41l.172.172a.28.28 0 00.2.086.285.285 0 00.2-.084l4.193-4.211A.292.292 0 0022 4.5a.283.283 0 00-.084-.2L17.723.087a.289.289 0 00-.407 0l-.172.173a.287.287 0 00-.084.2.278.278 0 00.084.2l.113 2.865H.292A.3.3 0 000 3.82v1.37a.292.292 0 00.3.282z"/></svg><svg viewBox="0 0 22 9" id="arrow-btn-dark" xmlns="http://www.w3.org/2000/svg"><defs><style>.bcls-1{fill:#436372;fill-rule:evenodd}</style></defs><path class="bcls-1" d="M.3 5.47h16.948l-.1 2.86a.279.279 0 00-.084.2.3.3 0 00.084.21l.172.17a.276.276 0 00.408 0L21.92 4.7a.283.283 0 00.084-.2.307.307 0 00-.084-.21L17.728.08a.3.3 0 00-.408 0l-.172.17a.3.3 0 00-.084.21.3.3 0 00.084.2l.113 2.86H.292a.3.3 0 00-.292.3v1.37a.288.288 0 00.3.28z"/></svg><svg viewBox="0 0 6.1 10.97" id="arrow-right" xmlns="http://www.w3.org/2000/svg"><defs><style>.ccls-1{fill:#243f4d;fill-rule:evenodd}</style></defs><path class="ccls-1" d="M.55 10.97a.53.53 0 01-.41-.19.6.6 0 01-.15-.4.631.631 0 01.17-.43l4.55-4.47L.16 1A.607.607 0 01-.01.58.629.629 0 01.14.17a.559.559 0 01.8-.02l4.98 4.9.01.01a.657.657 0 01.12.17.7.7 0 01.05.25.742.742 0 01-.05.25.61.61 0 01-.12.16c0 .01-.01.01-.01.02l-4.98 4.9a.589.589 0 01-.39.16z"/></svg><svg viewBox="0 0 26 28" id="calendar" xmlns="http://www.w3.org/2000/svg"><path d="M2 26h4.5v-4.5H2V26zm5.5 0h5v-4.5h-5V26zM2 20.5h4.5v-5H2v5zm5.5 0h5v-5h-5v5zm-5.5-6h4.5V10H2v4.5zM13.5 26h5v-4.5h-5V26zm-6-11.5h5V10h-5v4.5zm12 11.5H24v-4.5h-4.5V26zm-6-5.5h5v-5h-5v5zM8 7V2.5c0-.266-.234-.5-.5-.5h-1c-.266 0-.5.234-.5.5V7c0 .266.234.5.5.5h1c.266 0 .5-.234.5-.5zm11.5 13.5H24v-5h-4.5v5zm-6-6h5V10h-5v4.5zm6 0H24V10h-4.5v4.5zM20 7V2.5c0-.266-.234-.5-.5-.5h-1c-.266 0-.5.234-.5.5V7c0 .266.234.5.5.5h1c.266 0 .5-.234.5-.5zm6-1v20c0 1.094-.906 2-2 2H2c-1.094 0-2-.906-2-2V6c0-1.094.906-2 2-2h2V2.5C4 1.125 5.125 0 6.5 0h1C8.875 0 10 1.125 10 2.5V4h6V2.5C16 1.125 17.125 0 18.5 0h1C20.875 0 22 1.125 22 2.5V4h2c1.094 0 2 .906 2 2z"/></svg><svg viewBox="0 0 19 17" id="cart" xmlns="http://www.w3.org/2000/svg"><path fill-rule="evenodd" fill="#243F4D" d="M18.936 3.932l-2.123 7.956a.594.594 0 01-.573.44H5.885a.044.044 0 00-.023 0c-1.329.001-2.205.493-2.68 1.509a.593.593 0 01-1.073-.502c.579-1.239 1.627-1.973 3.054-2.151L4.108 5.793a.592.592 0 111.163-.227l1.091 5.578h9.423l1.807-6.771H4.29A4.354 4.354 0 01.007.68.591.591 0 111.178.505a3.165 3.165 0 003.115 2.682h14.07a.593.593 0 01.573.745zM5.527 12.831h.006A2.065 2.065 0 017.602 14.9a2.066 2.066 0 01-1.277 1.917 2.067 2.067 0 01-2.26-.446 2.066 2.066 0 01-.453-2.26 2.068 2.068 0 011.915-1.28zm-.626 2.702a.89.89 0 10.632-1.518h-.004a.887.887 0 00-.628 1.518zm9.017-2.702c.546-.04 1.08.218 1.468.603.392.393.607.912.607 1.466a2.065 2.065 0 01-1.274 1.917 2.064 2.064 0 01-2.262-.446 2.065 2.065 0 01-.452-2.26 2.064 2.064 0 011.913-1.28zm-.625 2.702a.889.889 0 10.631-1.518h-.001c-.331.032-.685.215-.823.548a.885.885 0 00.193.97z"/></svg><svg viewBox="0 0 19 17" id="favorites" xmlns="http://www.w3.org/2000/svg"><path fill-rule="evenodd" fill="#243F4D" d="M9.913 16.244a.714.714 0 01-.28-.056C9.28 16.039.983 12.439.983 5.429 1.074 2.779 3.19.721 5.801.721c1.743 0 3.266.918 4.112 2.31a4.796 4.796 0 014.112-2.31c2.609 0 4.725 2.058 4.817 4.684 0 7.034-8.297 10.634-8.649 10.783a.718.718 0 01-.28.056zM5.801 2.106c-1.847 0-3.343 1.47-3.408 3.346 0 5.408 6.125 8.663 7.52 9.335 1.395-.672 7.52-3.93 7.52-9.358-.065-1.853-1.563-3.323-3.408-3.323s-3.342 1.47-3.408 3.346a.698.698 0 01-.704.669.7.7 0 01-.705-.669c-.064-1.876-1.561-3.346-3.407-3.346z"/></svg><svg viewBox="0 0 21 21" id="filter" xmlns="http://www.w3.org/2000/svg"><path fill-rule="evenodd" fill="#FFF" d="M17.883 12.75a2.145 2.145 0 01-2.146-2.147c0-1.186.959-2.145 2.146-2.145 1.187 0 2.146.959 2.146 2.145a2.145 2.145 0 01-2.146 2.147zm0-7.869a2.144 2.144 0 01-2.146-2.146c0-1.187.959-2.146 2.146-2.146 1.187 0 2.146.959 2.146 2.146a2.144 2.144 0 01-2.146 2.146zm-7.869 15.737a2.144 2.144 0 01-2.146-2.146c0-1.187.96-2.146 2.146-2.146 1.187 0 2.146.959 2.146 2.146a2.144 2.144 0 01-2.146 2.146zm0-7.868a2.145 2.145 0 110-4.292c1.187 0 2.146.959 2.146 2.145a2.145 2.145 0 01-2.146 2.147zm0-7.869a2.145 2.145 0 110-4.292c1.187 0 2.146.959 2.146 2.146a2.144 2.144 0 01-2.146 2.146zM2.146 20.618A2.144 2.144 0 010 18.472c0-1.187.959-2.146 2.146-2.146 1.187 0 2.146.959 2.146 2.146a2.144 2.144 0 01-2.146 2.146zm0-7.868A2.145 2.145 0 010 10.603c0-1.186.959-2.145 2.146-2.145 1.187 0 2.146.959 2.146 2.145a2.145 2.145 0 01-2.146 2.147zm0-7.869A2.144 2.144 0 010 2.735C0 1.548.959.589 2.146.589c1.187 0 2.146.959 2.146 2.146a2.144 2.144 0 01-2.146 2.146zm15.737 11.445c1.187 0 2.146.959 2.146 2.146a2.144 2.144 0 01-2.146 2.146 2.144 2.144 0 01-2.146-2.146c0-1.187.959-2.146 2.146-2.146z"/></svg><svg viewBox="0 0 22 20" id="filter-cart"><path d="M21.934 5.216l-3.717 8.56a.813.813 0 01-.746.488H7.257a.814.814 0 01-.787-.597L3.147 1.629H.814A.817.817 0 010 .814c0-.449.366-.816.814-.816h2.943c.367 0 .692.245.787.598l3.323 12.038h9.062l3.011-6.929H9.902a.816.816 0 010-1.631h11.286c.271 0 .529.137.678.366a.829.829 0 01.068.776zM6.484 16.303a1.848 1.848 0 010 3.696 1.849 1.849 0 010-3.696zm11.408 0a1.85 1.85 0 011.519 3.057c-.326.38-.773.598-1.262.639h-.135a1.85 1.85 0 01-1.831-1.726 1.849 1.849 0 011.709-1.97z"/></svg><svg viewBox="0 0 22 18" id="filter-favorites"><path d="M21.99 5.82a6.212 6.212 0 00-1.849-4.1C19.016.61 17.545-.001 16.002-.001c-2.311 0-3.948 1.785-4.827 2.745l-.156.169-.083-.094c-.804-.916-2.476-2.82-4.938-2.82-1.543 0-3.013.611-4.139 1.721A6.212 6.212 0 00.01 5.82c-.082 1.541.31 2.88 1.271 4.338.861 1.308 3.104 3.374 4.763 4.748 1.705 1.411 3.95 3.093 4.965 3.093 1.032 0 3.269-1.68 4.965-3.087 1.646-1.367 3.876-3.432 4.746-4.754.646-.984 1.375-2.366 1.27-4.338zm-2.376 3.61c-.632.961-2.412 2.736-4.431 4.418-2.406 2.004-3.831 2.795-4.172 2.826-.342-.035-1.77-.833-4.188-2.843-2.03-1.686-3.813-3.454-4.437-4.402-.795-1.206-1.12-2.297-1.054-3.538.135-2.519 2.228-4.569 4.666-4.569 1.863 0 3.216 1.542 3.943 2.37.428.488.663.755 1.059.755.409 0 .672-.286 1.151-.809.794-.866 2.122-2.316 3.851-2.316 2.438 0 4.531 2.05 4.666 4.569.067 1.254-.248 2.313-1.054 3.539z"/></svg><svg viewBox="0 0 20 20" id="filter-view"><path d="M19.45 19.448a1.873 1.873 0 01-2.651 0l-4.588-4.588a8.819 8.819 0 002.651-2.651l4.588 4.589c.733.732.733 1.92 0 2.65zM7.5 14.999A7.5 7.5 0 117.502-.003 7.5 7.5 0 017.5 15zm0-13.126a5.632 5.632 0 00-5.625 5.626A5.63 5.63 0 007.5 13.123a5.63 5.63 0 005.625-5.624A5.632 5.632 0 007.5 1.873zM4.375 7.499h-1.25A4.381 4.381 0 017.5 3.123v1.251a3.129 3.129 0 00-3.125 3.125z"/></svg><svg id="info-card" viewBox="0 0 53.56 52.25" xmlns="http://www.w3.org/2000/svg"><defs><style>.kcls-1,.kcls-2{fill:#a3bbc8}.kcls-1{fill-rule:evenodd}.kcls-2{opacity:.34}</style></defs><path id="kcredit-card" class="kcls-1" d="M1444.43 1042.32a.83.83 0 00-.84.83v8.27a2.164 2.164 0 01-2.16 2.16h-39.34a2.164 2.164 0 01-2.16-2.16v-11.92h27.29a.84.84 0 100-1.68h-27.29v-5.47h9.87a.828.828 0 00.83-.83.837.837 0 00-.83-.84h-9.87v-2.88a2.166 2.166 0 012.16-2.17h25.13a.835.835 0 100-1.67h-25.13a3.839 3.839 0 00-3.83 3.84v23.62a3.837 3.837 0 003.83 3.83h39.34a3.837 3.837 0 003.83-3.83v-8.27a.828.828 0 00-.83-.83zm-17.21-11.64H1413a.837.837 0 00-.83.84.828.828 0 00.83.83h14.22a.837.837 0 00.84-.83.845.845 0 00-.84-.84zm-9.24 11.56h-14.27a.835.835 0 000 1.67h14.27a.835.835 0 100-1.67zm-6.08 3.99h-8.19a.835.835 0 000 1.67h8.19a.835.835 0 000-1.67zm34.63-13.61a.832.832 0 00.84-.84v-4.77a3.038 3.038 0 00-2.39-2.97v-6.02a6.6 6.6 0 10-13.19 0v6.02a3.053 3.053 0 00-2.4 2.97v10.75a3.045 3.045 0 003.04 3.04h11.9a3.039 3.039 0 003.04-3.04v-3.19a.835.835 0 00-1.67 0v3.19a1.379 1.379 0 01-1.37 1.37h-11.9a1.379 1.379 0 01-1.37-1.37v-10.75a1.379 1.379 0 011.37-1.37h11.9a1.379 1.379 0 011.37 1.37v4.77a.83.83 0 00.83.84zm-3.23-8.65h-9.84v-5.95a4.92 4.92 0 119.84 0v5.95zm-4.92 4.32a3.092 3.092 0 00-.83 6.07v2.04a.83.83 0 00.83.84.839.839 0 00.84-.84v-2.04a3.094 3.094 0 00-.84-6.07zm0 4.52a1.425 1.425 0 111.42-1.43 1.428 1.428 0 01-1.42 1.43z" transform="translate(-1398.25 -1011.41)"/><circle class="kcls-2" cx="43.75" cy="42.45" r="9.81"/></svg><svg id="info-shape" data-name="Группа 1" viewBox="0 0 50.875 53.13" xmlns="http://www.w3.org/2000/svg"><defs><style>.lcls-1,.lcls-2{fill:#a3bbc8;fill-rule:evenodd}.lcls-1{opacity:.34}</style></defs><path class="lcls-1" d="M263.984 1044.59a9.815 9.815 0 11-9.8 9.82 9.811 9.811 0 019.8-9.82z" transform="translate(-222.906 -1011.09)"/><path class="lcls-2" d="M268.312 1022.67a.937.937 0 00-1.592.99 22.684 22.684 0 01-32.86 30.14.938.938 0 00-1.125 1.5 24.559 24.559 0 0035.577-32.63zm-23.03 21.94h-7.55l4.743-4.75a12.68 12.68 0 003.744-9.03 5.844 5.844 0 10-11.688 0 .938.938 0 001.875 0 3.969 3.969 0 117.938 0 10.836 10.836 0 01-3.195 7.71l-6.344 6.34a.949.949 0 00-.2 1.03.93.93 0 00.866.57h9.813a.935.935 0 10-.002-1.87zm15.039-6.44h-2.6v-1.52a.938.938 0 00-1.875 0v1.52h-5.286l5.286-8.85v4.21a.938.938 0 101.875 0v-7.62a.957.957 0 00-.456-.8.94.94 0 00-1.286.33l-7.875 13.19a.933.933 0 00-.011.94.951.951 0 00.816.48h6.938v5.5a.938.938 0 001.875 0v-5.5h2.6a.94.94 0 00-.001-1.88zm5.33-22.63a.938.938 0 10-1.875.04l.042 1.75a24.556 24.556 0 00-33.549 35.85.93.93 0 00.656.27.92.92 0 00.669-.28.942.942 0 00-.013-1.33 22.679 22.679 0 0115.882-38.87 22.745 22.745 0 0115.107 5.77l-1.843.04a.935.935 0 00.022 1.87h.023l4.06-.09a.934.934 0 00.915-.96z" transform="translate(-222.906 -1011.09)"/></svg><svg id="info-truck" data-name="Группа 1" viewBox="0 0 53.75 36.44" xmlns="http://www.w3.org/2000/svg"><defs><style>.mcls-1,.mcls-2{fill:#a3bbc8}.mcls-1{fill-rule:evenodd}.mcls-2{opacity:.34}</style></defs><path id="mdelivery-truck" class="mcls-1" d="M812.816 1025.33h-6.126a.79.79 0 000 1.58h6.126a.79.79 0 000-1.58zm.524 11.01h-5.6a.785.785 0 100 1.57h5.6a.785.785 0 100-1.57zm-2.094-4.72H804.6a.79.79 0 000 1.58h6.65a.79.79 0 00-.004-1.58zm0 11.01h-.646a.785.785 0 100 1.57h.644a.785.785 0 10.002-1.57zm-3.263 0H804.6a.785.785 0 100 1.57h3.387a.785.785 0 10-.004-1.57zm36.86-19.86h-6.657v-1.42a.784.784 0 00-.786-.78h-12.175a.785.785 0 100 1.57h11.39v17.22a.786.786 0 101.571 0v-15.02h6.657a6.519 6.519 0 016.509 6.52v13.29h-2a4.974 4.974 0 00-9.824 0h-1.345v-1.12a.786.786 0 10-1.571 0v1.12h-8.336a4.974 4.974 0 00-9.823 0h-1.634v-22.01h5.261a.785.785 0 100-1.57h-6.046a.783.783 0 00-.785.78v23.59a.791.791 0 00.785.79h2.419a4.974 4.974 0 009.823 0h11.252a4.974 4.974 0 009.824 0h2.782a.791.791 0 00.785-.79v-14.08a8.094 8.094 0 00-8.076-8.09zm-21.475 25.58a3.41 3.41 0 113.4-3.41 3.411 3.411 0 01-3.4 3.41zm21.075 0a3.411 3.411 0 01-3.4-3.41 3.4 3.4 0 113.4 3.41zm.4-22.44h-4.3a.791.791 0 00-.785.79v7.39a.791.791 0 00.785.79H849a.792.792 0 00.786-.79v-3.23a4.949 4.949 0 00-4.943-4.95zm3.367 7.39h-6.882v-5.81h3.515a3.371 3.371 0 013.367 3.37v2.44zm-24.842 9.61a2.03 2.03 0 102.024 2.03 2.029 2.029 0 00-2.024-2.03zm0 2.49a.46.46 0 01-.455-.46.455.455 0 01.909 0 .46.46 0 01-.454.46zm21.075-2.49a2.03 2.03 0 102.025 2.03 2.03 2.03 0 00-2.025-2.03zm0 2.49a.46.46 0 01-.454-.46.454.454 0 01.908 0 .46.46 0 01-.454.46zm4.552-8.37a.783.783 0 00-.785.78v1.99a.786.786 0 101.571 0v-1.99a.784.784 0 00-.781-.78z" transform="translate(-803.813 -1020.56)"/><circle class="mcls-2" cx="43.938" cy="26.645" r="9.813"/></svg><svg viewBox="0 0 16 16" id="searсh" xmlns="http://www.w3.org/2000/svg"><path fill-rule="evenodd" fill="#243F4D" d="M15.321 14.61c-.422.454-1.994 1.415-3.731-.292l-2.058-2.35a6.283 6.283 0 01-2.549.539C3.515 12.507.705 9.705.705 6.25c0-3.456 2.807-6.254 6.275-6.254 3.465 0 6.279 2.801 6.279 6.257 0 .929-.203 1.812-.568 2.604l2.336 2.036c1.703 1.747.746 3.266.294 3.717zM6.98 1.305c-2.742 0-4.965 2.216-4.965 4.948s2.22 4.948 4.965 4.948c2.742 0 4.966-2.216 4.966-4.948S9.722 1.305 6.98 1.305zm7.199 10.561l-2.162-1.88a6.254 6.254 0 01-1.363 1.34l1.872 2.187c.293.324 1.126.867 1.881.226.209-.176.633-1.068-.228-1.873zm-7.685-1.781a4.205 4.205 0 01-2.143-1.131 4.172 4.172 0 01-1.136-2.136c-.065-.354.128-.676.487-.742.356-.065.68.131.746.484.096.582.355 1.067.779 1.489.421.389.942.678 1.494.777.325.066.552.39.487.743a.644.644 0 01-.714.516z"/></svg><svg viewBox="0 0 24 28" id="user" xmlns="http://www.w3.org/2000/svg"><path d="M18.766 12.25c2.203.641 5.234 2.812 5.234 9.922C24 25.391 21.609 28 18.672 28H5.328C2.39 28 0 25.391 0 22.172c0-7.109 3.031-9.281 5.234-9.922A7.914 7.914 0 014 8c0-4.406 3.594-8 8-8s8 3.594 8 8a7.911 7.911 0 01-1.234 4.25zM12 2C8.687 2 6 4.688 6 8s2.688 6 6 6 6-2.688 6-6-2.688-6-6-6zm6.672 24C20.5 26 22 24.297 22 22.172c0-4.922-1.656-8-4.75-8.156C15.844 15.25 14.016 16 12 16s-3.844-.75-5.25-1.984C3.656 14.172 2 17.25 2 22.172 2 24.297 3.5 26 5.328 26h13.344z"/></svg><svg viewBox="0 0 127 127" id="video-play" xmlns="http://www.w3.org/2000/svg"><path fill-rule="evenodd" opacity=".4" fill="#A3BBC8" d="M63.5 0C98.57 0 127 28.43 127 63.5S98.57 127 63.5 127 0 98.57 0 63.5 28.43 0 63.5 0z"/><path fill-rule="evenodd" fill="#A3BBC8" d="M63 14c27.062 0 49 21.938 49 49s-21.938 49-49 49-49-21.938-49-49 21.938-49 49-49z"/><path fill-rule="evenodd" fill="#FFF" d="M73.684 64.74L57.64 74.536a3.236 3.236 0 01-3.062.144c-.972-.47-1.579-1.387-1.579-2.385V52.7c0-.999.607-1.917 1.579-2.386a3.24 3.24 0 013.062.143l16.044 9.798c.822.502 1.315 1.343 1.315 2.241 0 .9-.493 1.741-1.315 2.244z"/></svg></svg>